<?xml version="1.0" encoding="UTF-8"?>
<svg id="Warstwa_1" data-name="Warstwa 1" xmlns="http://www.w3.org/2000/svg" viewBox="0 0 120 120">
  <defs>
    <style>
      .cls-1 {
        fill: #a6a6a6;
      }
    </style>
  </defs>
  <path class="cls-1" d="M93.26,63.44h-5.9l-3.81-7.25,1.59-3.77c.18-.43.08-.92-.25-1.26l-1.88-1.88.34-2.07c.16-.03.32-.05.48-.09,3.86-1.01,6.45-4.75,5.91-8.84-.51-3.86-3.85-6.84-7.74-6.95-4.52-.12-8.24,3.53-8.24,8.02,0,2.53,1.21,4.86,3.17,6.37l-.55,1.66h-2.62c-.36,0-.7.17-.91.46l-3.1,4.13H31.33c-.63,0-1.15.52-1.15,1.15v22.94c0,.63.52,1.15,1.15,1.15h34.48l-4.17,11.1c-.22.58-.2,1.22.06,1.79.26.57.73,1,1.31,1.22l6.93,2.6c.28.11.57.16.85.16.94,0,1.81-.56,2.19-1.49l1.36-3.41c.25-.61.23-1.27-.04-1.87-.27-.59-.78-1.05-1.41-1.27l-1.09-.36,2.12-5.82,9.75,13.23c.46.62,1.17.96,1.9.96.4,0,.8-.1,1.17-.31l6.11-3.49c1.07-.63,1.48-1.94.93-3.08l-1.33-2.66c-.54-1.03-1.76-1.53-2.83-1.15l-1.6.53-2.73-4.36h7.97c.63,0,1.15-.51,1.15-1.15v-13.77c0-.63-.51-1.15-1.15-1.15h0ZM76.06,39.35c0-3.5,3.15-6.28,6.76-5.64,2.25.39,4.09,2.16,4.57,4.39.67,3.1-1.23,6.04-4.14,6.8-1.29.34-2.66.22-3.84-.32-2.04-.94-3.36-2.99-3.36-5.22h0ZM74.34,49.67h2.87c.49,0,.93-.31,1.09-.78l.68-2.03c.66.25,1.34.41,2.04.48l-.35,2.15c-.06.36.06.73.32,1l1.75,1.75-.56,1.32-.51-.97-2.03,1.07,6.05,11.51,1.19,2.04c.03.05.05.11.06.17.06.26-.02.54-.24.71l-1.65,1.24c-.22.16-.43.14-.54.12s-.32-.09-.45-.32l-2.95-5.06-3.99-9.11-2.1.92,3.31,7.57h-4.55c-.63,0-1.15.51-1.15,1.15v9.9l-3.38-3.42.73-5.83,1.46-11.66,2.91-3.89ZM32.47,54.27h36.55l-2.58,20.64h-33.97v-20.64ZM69.29,86.88c.14.28.38.49.67.59l2.25.83-1.47,3.46-6.97-2.65,4.75-12.65.06-.26.28-2.24,2.81,2.85.6.82-3.04,8.37c-.11.29-.09.61.05.89ZM86.56,85.84c.28.45.83.65,1.33.48l2.53-.8,1.29,2.71-6.2,3.47-8.99-12.21h6.07l3.96,6.34ZM92.12,77.2h-17.2v-11.47h4.5l2.65,4.55c.43.73,1.15,1.25,1.98,1.41.2.04.39.06.59.06h.02s.06,0,.09-.01c.15,0,.31-.02.46-.05.06-.01.12-.03.17-.05.13-.03.26-.08.39-.13.05-.02.11-.04.15-.07.17-.08.34-.17.49-.29l1.65-1.24c1.2-.9,1.54-2.57.78-3.87l-.18-.32h3.45v11.47h0Z"/>
  <path class="cls-1" d="M35.91,46.23c5.69,0,10.33-4.63,10.33-10.32s-4.63-10.32-10.33-10.32-10.32,4.63-10.32,10.32,4.63,10.32,10.32,10.32ZM35.91,27.88c4.43,0,8.03,3.6,8.03,8.03s-3.6,8.03-8.03,8.03-8.03-3.6-8.03-8.03,3.6-8.03,8.03-8.03Z"/>
  <path class="cls-1" d="M37.06,38.2h3.45c.63,0,1.15-.51,1.15-1.15h0c0-.63-.51-1.15-1.15-1.15h-2.3c-.63,0-1.15-.51-1.15-1.15v-3.44c0-.63-.51-1.15-1.15-1.15h0c-.63,0-1.15.51-1.15,1.15v4.59c0,1.26,1.03,2.29,2.29,2.29Z"/>
  <path class="cls-1" d="M48.53,46.23h12.61c.63,0,1.15.51,1.15,1.15h0c0,.63-.51,1.15-1.15,1.15h-12.61c-.63,0-1.15-.51-1.15-1.15h0c0-.63.51-1.15,1.15-1.15Z"/>
  <path class="cls-1" d="M51.97,40.5h11.47c.63,0,1.15.51,1.15,1.15h0c0,.63-.51,1.15-1.15,1.15h-11.47c-.63,0-1.15-.51-1.15-1.15h0c0-.63.51-1.15,1.15-1.15Z"/>
  <path class="cls-1" d="M54.27,34.77h12.61c.63,0,1.15.51,1.15,1.15h0c0,.63-.51,1.15-1.15,1.15h-12.61c-.63,0-1.15-.51-1.15-1.15h0c0-.63.51-1.15,1.15-1.15Z"/>
  <path class="cls-1" d="M35.92,80.64h22.94c.63,0,1.15.51,1.15,1.15h0c0,.63-.51,1.15-1.15,1.15h-22.94c-.63,0-1.15-.51-1.15-1.15h0c0-.63.51-1.15,1.15-1.15Z"/>
  <path class="cls-1" d="M31.33,86.38h22.94c.63,0,1.15.51,1.15,1.15h0c0,.63-.51,1.15-1.15,1.15h-22.94c-.63,0-1.15-.51-1.15-1.15h0c0-.63.51-1.15,1.15-1.15Z"/>
  <path class="cls-1" d="M26.74,92.11h21.79c.63,0,1.15.51,1.15,1.15h0c0,.63-.51,1.15-1.15,1.15h-21.79c-.63,0-1.15-.51-1.15-1.15h0c0-.63.51-1.15,1.15-1.15Z"/>
  <path class="cls-1" d="M57.71,29.03h13.76c.63,0,1.15.51,1.15,1.15h0c0,.63-.51,1.15-1.15,1.15h-13.76c-.63,0-1.15-.51-1.15-1.15h0c0-.63.51-1.15,1.15-1.15Z"/>
</svg>